<?xml version="1.0" encoding="UTF-8"?>
<svg version="1.1" xmlns="http://www.w3.org/2000/svg" width="226" height="204">
<path d="M0 0 C74.58 0 149.16 0 226 0 C226 67.32 226 134.64 226 204 C151.42 204 76.84 204 0 204 C0 136.68 0 69.36 0 0 Z " fill="#FDFEFE" transform="translate(0,0)"/>
<path d="M0 0 C6.97498402 0.38615829 11.78888928 2.56180034 17.8125 6 C19.13362793 6.74431274 19.13362793 6.74431274 20.48144531 7.50366211 C37.01689192 17.02023554 50.92962944 31.03160285 56.30859375 49.82421875 C57.43461459 55.44281827 57.39876443 61.16480074 57.4375 66.875 C57.44765137 67.95724854 57.45780273 69.03949707 57.46826172 70.15454102 C57.40102414 76.26416373 56.79264611 80.56985479 54 86 C53.58403192 87.4108859 53.18504854 88.82703266 52.8125 90.25 C50.83765856 96.34082677 46.92924924 101.0335501 43 106 C42.29037109 106.9590625 42.29037109 106.9590625 41.56640625 107.9375 C30.54736507 122.06279907 11.99636563 130.06750756 -5 134 C-5.75893555 134.1757959 -6.51787109 134.3515918 -7.29980469 134.53271484 C-12.66222652 135.46071443 -18.13471032 135.18467744 -23.5625 135.1875 C-24.77486328 135.19974609 -25.98722656 135.21199219 -27.23632812 135.22460938 C-38.15410211 135.24217148 -48.35056555 134.02304862 -58.625 130.25 C-59.35154785 129.98614502 -60.0780957 129.72229004 -60.82666016 129.45043945 C-77.31598408 123.26188547 -90.29980311 111.55029534 -100 97 C-100 96.01 -100 95.02 -100 94 C-96.967351 95.46067956 -94.11692267 97.1128469 -91.25 98.875 C-79.6449898 105.82451192 -67.70808338 110.50527218 -54 111 C-52.45119141 111.07734375 -52.45119141 111.07734375 -50.87109375 111.15625 C-34.89944347 111.59233601 -21.16255917 108.21148699 -7 101 C-6.05253906 100.525625 -5.10507813 100.05125 -4.12890625 99.5625 C9.7056053 91.96538913 18.23286962 79.31334895 24 65 C24.55107422 63.66001953 24.55107422 63.66001953 25.11328125 62.29296875 C28.82024337 48.52658519 26.31582042 33.83273141 19.6484375 21.5 C14.65807139 13.4708076 8.18190621 5.82522674 0 1 C0 0.67 0 0.34 0 0 Z " fill="#FDFCFC" transform="translate(152,46)"/>
<path d="M0 0 C3.92788869 -0.46524507 6.02132076 -0.03411637 9.28515625 2.29296875 C17.99252442 10.55581662 23.62267908 19.81097568 24.14453125 31.84619141 C24.4281787 44.69896632 21.19417183 53.25087767 12.94921875 63.38671875 C8.48059994 68.04586007 3.29378188 71.29352261 -2.30078125 74.44921875 C-2.98011719 74.85011719 -3.65945312 75.25101562 -4.359375 75.6640625 C-13.06943066 80.46274181 -22.24361274 81.72155575 -32.05078125 81.82421875 C-32.84266846 81.83807617 -33.63455566 81.85193359 -34.45043945 81.86621094 C-39.29624356 81.82769989 -43.09979065 81.04058316 -47.56835938 79.17089844 C-49.56932759 78.33734967 -51.55711567 77.8320709 -53.67578125 77.38671875 C-57.30078125 76.44921875 -57.30078125 76.44921875 -59.30078125 74.44921875 C-60.45578125 73.95421875 -61.61078125 73.45921875 -62.80078125 72.94921875 C-66.30078125 71.44921875 -66.30078125 71.44921875 -68.30078125 69.44921875 C-70.44029371 56.40642165 -65.1460966 43.94009335 -57.86328125 33.38671875 C-45.62266859 16.88320616 -26.14801359 4.20309327 -5.64453125 0.8515625 C-3.75535663 0.62424359 -1.86753843 0.36462974 0 0 Z " fill="#FDFDFD" transform="translate(113.30078125,42.55078125)"/>
<path d="M0 0 C13.60644403 -0.75281555 22.04479073 4.59919803 32.1875 13.3125 C38.10572116 18.77051734 42.09622576 24.51766057 45 32 C45.515625 33.010625 46.03125 34.02125 46.5625 35.0625 C50.88472848 43.89487995 50.36458265 56.822297 48.28125 66.25390625 C47.33753106 68.62461955 46.24904648 70.77719031 45 73 C44.649375 73.81082031 44.29875 74.62164062 43.9375 75.45703125 C40.83998629 82.45870285 36.36790096 87.60471179 31 93 C30.11054688 93.94166016 30.11054688 93.94166016 29.203125 94.90234375 C15.01926527 108.74102106 -5.48594029 112.60994104 -24.52563477 112.47973633 C-39.72864917 112.03547174 -57.61042961 107.67772224 -69 97 C-69 96.34 -69 95.68 -69 95 C-69.59554687 94.89042969 -70.19109375 94.78085938 -70.8046875 94.66796875 C-74.48759005 93.54737029 -76.64935503 90.9590472 -79 88 C-81.05852739 83.60223693 -81.19274978 79.81874448 -81 75 C-78.38102975 76.03229484 -75.78403285 77.09410859 -73.203125 78.21875 C-72.22859375 78.6415625 -71.2540625 79.064375 -70.25 79.5 C-69.28578125 79.9228125 -68.3215625 80.345625 -67.328125 80.78125 C-59.80631654 83.53571507 -52.6693299 84.36152664 -44.6875 84.3125 C-43.76614258 84.30903564 -42.84478516 84.30557129 -41.89550781 84.30200195 C-34.90212928 84.19061498 -28.64415547 83.24926948 -22 81 C-21.18402344 80.77183594 -20.36804688 80.54367188 -19.52734375 80.30859375 C-14.16251773 78.74124057 -10.44778189 76.35852918 -6 73 C-5.34 73 -4.68 73 -4 73 C-4 72.34 -4 71.68 -4 71 C-2.6796875 69.80859375 -2.6796875 69.80859375 -0.875 68.4375 C6.69589066 62.13607181 11.88584857 52.59541979 14 43 C14.90408269 27.91219384 13.22437034 18.63758123 3.8046875 6.4453125 C2.25153909 4.34083002 1.07157523 2.37514098 0 0 Z " fill="#FDFDFC" transform="translate(126,42)"/>
<path d="M0 0 C1.69370728 0.00241699 1.69370728 0.00241699 3.42163086 0.00488281 C12.36524786 0.13564307 19.68410598 1.58542504 28.1875 4.375 C30.121232 4.85251341 32.055219 5.32951155 33.99536133 5.78027344 C37.40987093 6.58036069 40.7987342 7.47290346 44.1875 8.375 C44.90309082 8.56223633 45.61868164 8.74947266 46.35595703 8.94238281 C66.78757281 14.45761022 85.95911836 27.10183074 97.1875 45.375 C105.7626401 61.41605809 109.50257625 78.91203996 104.90454102 96.87670898 C100.51182808 111.23952172 90.6222433 123.91611308 79.1875 133.375 C78.56875 133.89320313 77.95 134.41140625 77.3125 134.9453125 C69.61561928 141.07074674 60.50684813 145.31838671 51.1875 148.375 C50.16527344 148.7153125 49.14304687 149.055625 48.08984375 149.40625 C24.73220795 156.91501926 -1.6226396 154.82615746 -23.8125 144.375 C-32.52979395 139.81429654 -39.77604174 134.21231321 -46.8125 127.375 C-47.67875 126.59125 -48.545 125.8075 -49.4375 125 C-59.76075485 113.59008675 -65.87588715 101.1372982 -69.8125 86.375 C-69.3175 85.88 -69.3175 85.88 -68.8125 85.375 C-68.78084118 82.85133967 -68.88074712 80.34229895 -68.97265625 77.8203125 C-68.8125 75.375 -68.8125 75.375 -66.8125 72.375 C-66.64481548 70.52840005 -66.48476562 68.68036985 -66.38500977 66.82885742 C-65.40320913 50.80224923 -56.16233615 39.10631647 -44.8125 28.375 C-31.84077692 16.99312599 -14.22117377 7.71412875 3.1875 6.375 C-0.35230214 2.97204588 -3.87902107 2.8424355 -8.5625 2.6875 C-9.25988281 2.65333984 -9.95726562 2.61917969 -10.67578125 2.58398438 C-12.38747108 2.50191705 -14.0999576 2.43677081 -15.8125 2.375 C-10.81667574 -0.5594156 -5.64605051 -0.00826957 0 0 Z M18.1875 9.375 C19.53631831 12.2717479 21.08994861 14.67837375 23.0625 17.1875 C29.28701419 25.37045889 32.57591524 32.77558352 32.5 43.125 C32.49436035 43.92413818 32.4887207 44.72327637 32.48291016 45.54663086 C32.19440953 59.60175319 25.95043183 69.51141939 16.1875 79.375 C15.1975 79.87 15.1975 79.87 14.1875 80.375 C14.1875 81.035 14.1875 81.695 14.1875 82.375 C13.48625 82.6225 12.785 82.87 12.0625 83.125 C9.12785722 84.26917144 9.12785722 84.26917144 6.6875 86.25 C-6.02220898 95.08721952 -25.69063734 94.79072793 -40.43359375 92.9140625 C-46.91360782 91.45111112 -52.58354816 88.72683623 -58.4140625 85.58203125 C-60.66274717 84.2251534 -60.66274717 84.2251534 -62.8125 84.375 C-63.19042521 90.54777848 -62.34641317 95.23183995 -58.3828125 100.1484375 C-56.65115079 102.04307825 -56.65115079 102.04307825 -53.8125 104.375 C-52.8225 104.375 -51.8325 104.375 -50.8125 104.375 C-50.565 104.973125 -50.3175 105.57125 -50.0625 106.1875 C-47.33583122 110.95917037 -42.72676017 112.37597891 -37.8125 114.375 C-36.72582031 114.85582031 -35.63914062 115.33664063 -34.51953125 115.83203125 C-15.20837561 124.08091216 7.71902712 124.06810563 27.26855469 116.57763672 C43.88250481 109.74728542 56.94698083 97.63216873 64.14453125 81.05078125 C64.66080078 79.72626953 64.66080078 79.72626953 65.1875 78.375 C65.55617187 77.488125 65.92484375 76.60125 66.3046875 75.6875 C67.52332474 71.11491425 67.51667303 66.77429848 67.5 62.0625 C67.51611328 61.16337891 67.53222656 60.26425781 67.54882812 59.33789062 C67.5532103 53.27733686 66.78668418 47.90477756 64.1875 42.375 C63.5275 41.715 62.8675 41.055 62.1875 40.375 C61.5996875 38.8590625 61.5996875 38.8590625 61 37.3125 C56.27798539 25.95605487 45.63929195 17.32301978 35.1875 11.375 C29.51755867 9.10702347 24.19859404 9.15729438 18.1875 9.375 Z M1.17578125 10.63671875 C-19.2944185 14.26286842 -39.28459868 25.81268977 -51.8125 42.375 C-59.1298395 53.17107467 -63.1689028 63.4823343 -63.44140625 76.5625 C-62.59893758 80.33006176 -60.99580831 81.32216819 -57.8125 83.375 C-56.16258418 84.08210678 -54.49687744 84.75443989 -52.8125 85.375 C-51.8225 86.035 -50.8325 86.695 -49.8125 87.375 C-47.61831987 87.95256127 -45.40720253 88.4674743 -43.1875 88.9375 C-36.91348177 90.27401823 -36.91348177 90.27401823 -35.8125 91.375 C-17.1128543 92.55950508 -0.35371694 89.22495381 14.5625 77.0625 C18.85224768 73.01710503 22.10456265 68.3779439 25.1875 63.375 C25.62449219 62.72402344 26.06148438 62.07304688 26.51171875 61.40234375 C31.18490768 53.15457522 30.4681977 41.21728389 28.4921875 32.203125 C26.4136908 26.57895746 23.0687374 21.90000034 19.1875 17.375 C18.65125 16.69824219 18.115 16.02148438 17.5625 15.32421875 C15.28767587 12.69658625 13.51144236 10.68837351 10.05859375 9.87109375 C7.02704822 9.79200995 4.17216115 10.24689845 1.17578125 10.63671875 Z M44.1875 13.375 C46.68324958 15.97473915 49.30329701 18.31509252 52.0625 20.625 C58.04052962 25.82521908 62.78549271 32.20548051 66.1875 39.375 C66.56132812 40.15617187 66.93515625 40.93734375 67.3203125 41.7421875 C71.99406983 53.27950454 72.34562629 67.92206338 68 79.625 C67.10287794 81.56089498 66.1689434 83.48045884 65.1875 85.375 C64.83816406 86.15488281 64.48882812 86.93476562 64.12890625 87.73828125 C56.23386256 104.02000139 39.9273791 114.30656339 23.625 120.75 C3.41747265 127.50577098 -20.75167253 125.89649182 -39.7890625 116.44140625 C-50.37914824 110.98846202 -50.37914824 110.98846202 -53.8125 107.375 C-54.4725 107.375 -55.1325 107.375 -55.8125 107.375 C-55.24641299 111.53978301 -52.82427658 114.40977661 -50.3125 117.625 C-49.86543701 118.20056641 -49.41837402 118.77613281 -48.95776367 119.36914062 C-45.04296838 124.29320289 -40.75553109 128.47456681 -35.8125 132.375 C-35.24144531 132.84292969 -34.67039062 133.31085938 -34.08203125 133.79296875 C-14.4808268 148.92453988 13.11565709 150.67892872 36.78662109 148.09082031 C51.51807848 145.67921899 65.72637335 138.77612022 77.1875 129.375 C77.91453125 128.81039062 78.6415625 128.24578125 79.390625 127.6640625 C84.7742248 123.28731915 88.44095227 118.17344674 92.1875 112.375 C92.66316406 111.69308594 93.13882813 111.01117188 93.62890625 110.30859375 C96.61212423 105.90055524 98.2409116 101.61625643 99.609375 96.4765625 C100.1875 94.375 100.1875 94.375 101.1875 92.375 C102.76248899 71.76979926 100.19484233 57.12598374 88.1875 40.375 C87.44693359 39.32505859 87.44693359 39.32505859 86.69140625 38.25390625 C77.89015778 26.94547721 61.87731136 17.36786165 48.1875 13.375 C46.8675 13.375 45.5475 13.375 44.1875 13.375 Z " fill="#DB9176" transform="translate(107.8125,32.625)"/>
<path d="M0 0 C2.26659157 0.27095876 4.53281159 0.44487997 6.80859375 0.62109375 C9 1 9 1 12 3 C13.9896995 3.39013716 15.99019869 3.73202649 18 4 C18 4.33 18 4.66 18 5 C13.05 5.33 8.1 5.66 3 6 C4.711875 6.0825 6.42375 6.165 8.1875 6.25 C12.94307234 6.6605971 15.63313058 7.40093269 19 11 C17.43005284 12.56994716 15.61386714 12.38585746 13.4375 12.6875 C-7.84163064 16.48636162 -28.30274124 28.56458051 -41 46.1875 C-42.01405808 47.78281718 -43.01516023 49.38648169 -44 51 C-44.48082031 51.66773438 -44.96164063 52.33546875 -45.45703125 53.0234375 C-49.25196327 58.73224014 -49.83613492 64.45899055 -50.3684082 71.14868164 C-50.66898746 74.86115074 -50.89040299 76.83560448 -53 80 C-53.20449388 82.34758732 -53.20449388 82.34758732 -53.0625 84.875 C-52.98488615 88.41419154 -53.08060925 91.55228469 -54 95 C-59.79866189 91.13422541 -61.57968789 82.32043631 -63.0625 75.6875 C-63.82527898 72.68723601 -64.58744189 70.67506426 -66 68 C-71.30586639 57.72483338 -71.72784667 45.58498343 -68.375 34.5625 C-66.38307455 29.30720733 -63.64217152 25.23402439 -60 21 C-59.38769531 20.1853125 -58.77539062 19.370625 -58.14453125 18.53125 C-55.86406496 15.83955208 -53.55792781 13.97968556 -50.6875 11.9375 C-49.78386719 11.28652344 -48.88023438 10.63554688 -47.94921875 9.96484375 C-36.08722007 2.06208172 -14.26496145 -7.13248073 0 0 Z " fill="#DC9579" transform="translate(93,28)"/>
<path d="M0 0 C0.83418457 -0.01401855 1.66836914 -0.02803711 2.52783203 -0.04248047 C3.31399902 -0.03619629 4.10016602 -0.02991211 4.91015625 -0.0234375 C5.61406494 -0.02005371 6.31797363 -0.01666992 7.04321289 -0.01318359 C9.4577861 0.48161875 10.37156479 1.52454419 11.9375 3.375 C10.36755284 4.94494716 8.55136714 4.76085746 6.375 5.0625 C-14.90413064 8.86136162 -35.36524124 20.93958051 -48.0625 38.5625 C-49.08013472 40.15553806 -50.08160066 41.75908318 -51.0625 43.375 C-51.52011719 44.04273438 -51.97773437 44.71046875 -52.44921875 45.3984375 C-57.06665489 52.63658064 -58.35826578 61.08232955 -60.0625 69.375 C-63.22365776 68.00516497 -64.0552092 67.3859362 -66.0625 64.375 C-68.09333818 52.78033088 -63.32249375 38.86556833 -57.17578125 29.19140625 C-46.42294684 14.86091898 -31.07204421 4.80013883 -13.52734375 0.84375 C-9.00998015 0.23260724 -4.55512176 0.05393209 0 0 Z " fill="#FCF9F7" transform="translate(100.0625,35.625)"/>
<path d="M0 0 C0 0.66 0 1.32 0 2 C-0.56847656 2.12117188 -1.13695312 2.24234375 -1.72265625 2.3671875 C-2.88087891 2.61855469 -2.88087891 2.61855469 -4.0625 2.875 C-4.81660156 3.03742187 -5.57070312 3.19984375 -6.34765625 3.3671875 C-12.59411901 4.85750704 -18.16196154 6.80346132 -23.875 9.6875 C-24.92880859 10.21923828 -24.92880859 10.21923828 -26.00390625 10.76171875 C-31.52212354 13.6177277 -36.38656013 16.81270117 -41 21 C-41.68320312 21.60328125 -42.36640625 22.2065625 -43.0703125 22.828125 C-52.02236638 31.20152901 -59.44864195 42.65192253 -60.625 55.0625 C-60.74875 56.361875 -60.8725 57.66125 -61 59 C-61.99 59.495 -61.99 59.495 -63 60 C-66.07801208 48.64983046 -66.52463168 37.65928936 -61 27 C-58.90266431 23.76055082 -56.56907898 20.87518201 -54 18 C-53.21496094 17.07574219 -53.21496094 17.07574219 -52.4140625 16.1328125 C-38.25293928 0.59011628 -19.60825522 -0.68643414 0 0 Z " fill="#FBF7F4" transform="translate(92,31)"/>
<path d="M0 0 C0.99 0.33 1.98 0.66 3 1 C2.83628906 2.03125 2.67257813 3.0625 2.50390625 4.125 C1.71996915 10.39649677 1.89419524 16.69083019 1.9375 23 C1.94201172 24.25167969 1.94652344 25.50335938 1.95117188 26.79296875 C1.96288585 29.86202941 1.97928927 32.93098907 2 36 C2.62036133 36.132854 3.24072266 36.26570801 3.87988281 36.40258789 C6.59207164 37.16683548 7.79684253 38.43008816 9.75 40.4375 C10.36359375 41.05496094 10.9771875 41.67242187 11.609375 42.30859375 C13 44 13 44 13 46 C11.68 46 10.36 46 9 46 C13.03331081 53.89126028 18.60899126 61.96067586 26 67 C25.67 68.32 25.34 69.64 25 71 C14.85655926 65.49356074 6.39587776 54.58833164 2 44 C1.57976563 43.03835937 1.15953125 42.07671875 0.7265625 41.0859375 C-1.54644014 35.79102383 -3.60191903 30.59232388 -5 25 C-4.67 24.67 -4.34 24.34 -4 24 C-3.96834118 21.47633967 -4.06824712 18.96729895 -4.16015625 16.4453125 C-4 14 -4 14 -2 11 C-1.58073551 8.52375646 -1.58073551 8.52375646 -1.4375 5.875 C-1.09828393 1.09828393 -1.09828393 1.09828393 0 0 Z " fill="#DB8E72" transform="translate(43,94)"/>
<path d="M0 0 C1.09892578 -0.01611328 2.19785156 -0.03222656 3.33007812 -0.04882812 C10.15140313 -0.0528957 15.47293811 0.77533637 21.8125 3.3125 C21.8125 3.9725 21.8125 4.6325 21.8125 5.3125 C24.2875 5.8075 24.2875 5.8075 26.8125 6.3125 C26.4825 6.9725 26.1525 7.6325 25.8125 8.3125 C23.76220703 8.81494141 23.76220703 8.81494141 21.0703125 9.1640625 C20.08546875 9.29296875 19.100625 9.421875 18.0859375 9.5546875 C17.04695313 9.68101563 16.00796875 9.80734375 14.9375 9.9375 C13.9371875 10.0715625 12.936875 10.205625 11.90625 10.34375 C5.17533097 11.19598523 -1.40632472 11.47805767 -8.1875 11.3125 C-7.1875 9.3125 -7.1875 9.3125 -4.90234375 8.4609375 C-3.52755859 8.07808594 -3.52755859 8.07808594 -2.125 7.6875 C-1.20589844 7.42710938 -0.28679687 7.16671875 0.66015625 6.8984375 C1.37042969 6.70507812 2.08070312 6.51171875 2.8125 6.3125 C-0.72730214 2.90954588 -4.25402107 2.7799355 -8.9375 2.625 C-9.63488281 2.59083984 -10.33226563 2.55667969 -11.05078125 2.52148438 C-12.76247108 2.43941705 -14.4749576 2.37427081 -16.1875 2.3125 C-11.11508029 -0.69740031 -5.73355096 -0.0165232 0 0 Z " fill="#D98361" transform="translate(108.1875,32.6875)"/>
<path d="M0 0 C0.99 0.33 1.98 0.66 3 1 C2.83628906 2.03125 2.67257813 3.0625 2.50390625 4.125 C1.71996915 10.39649677 1.89419524 16.69083019 1.9375 23 C1.94201172 24.25167969 1.94652344 25.50335938 1.95117188 26.79296875 C1.96288585 29.86202941 1.97928927 32.93098907 2 36 C2.66 36 3.32 36 4 36 C3.67 36.99 3.34 37.98 3 39 C2.34 38.67 1.68 38.34 1 38 C1 37.34 1 36.68 1 36 C0.34 36 -0.32 36 -1 36 C-4.54795883 29.55885585 -5.46944338 25.18544331 -4 18 C-3.835 16.845 -3.67 15.69 -3.5 14.5 C-3 12 -3 12 -2 11 C-1.79224439 9.33795513 -1.63281745 7.66970509 -1.5 6 C-1.11111111 1.11111111 -1.11111111 1.11111111 0 0 Z " fill="#DA8463" transform="translate(43,94)"/>
<path d="M0 0 C0.66 0.33 1.32 0.66 2 1 C1.01 2.32 0.02 3.64 -1 5 C-0.34 5.33 0.32 5.66 1 6 C-14.23076923 19 -14.23076923 19 -23 19 C-27.90128992 19.0854713 -27.90128992 19.0854713 -32 21 C-34.67058851 21.14115161 -37.32432238 21.04247107 -40 21 C-40 20.67 -40 20.34 -40 20 C-39.175 19.8040625 -38.35 19.608125 -37.5 19.40625 C-23.84374642 15.87025577 -10.13567801 10.13567801 0 0 Z " fill="#DB9379" transform="translate(187,159)"/>
<path d="M0 0 C0.33 0 0.66 0 1 0 C1.05422947 1.4370809 1.09289723 2.87475462 1.125 4.3125 C1.14820313 5.11300781 1.17140625 5.91351563 1.1953125 6.73828125 C1 9 1 9 -1 12 C-1.20449388 14.34758732 -1.20449388 14.34758732 -1.0625 16.875 C-0.98488615 20.41419154 -1.08060925 23.55228469 -2 27 C-5.67856754 24.54762164 -6.13506855 22.83387373 -7.6875 18.75 C-8.12449219 17.63109375 -8.56148437 16.5121875 -9.01171875 15.359375 C-9.98773782 12.04168171 -10.19249994 9.43378269 -10 6 C-9.01 6.495 -9.01 6.495 -8 7 C-7.34 6.01 -6.68 5.02 -6 4 C-4.35 5.65 -2.7 7.3 -1 9 C-0.67 6.03 -0.34 3.06 0 0 Z " fill="#DD9A81" transform="translate(41,96)"/>
<path d="M0 0 C0.33 0 0.66 0 1 0 C1.02578125 0.61488281 1.0515625 1.22976562 1.078125 1.86328125 C1.28750557 6.83531024 1.28750557 6.83531024 3.75 10.9375 C6.13400787 12.0632815 8.5395015 13.05365442 11 14 C11.99 14.66 12.98 15.32 14 16 C16.21389829 16.60103341 18.44602579 17.13675809 20.6875 17.625 C21.86699219 17.88539062 23.04648438 18.14578125 24.26171875 18.4140625 C25.16535156 18.60742188 26.06898437 18.80078125 27 19 C27 19.33 27 19.66 27 20 C25.35 20 23.7 20 22 20 C22 20.66 22 21.32 22 22 C16.46640844 21.4943565 12.43969425 20.04383132 7.5625 17.4375 C6.92634766 17.10814453 6.29019531 16.77878906 5.63476562 16.43945312 C4.08505424 15.63546752 2.54181678 14.81902334 1 14 C1.66 18.29 2.32 22.58 3 27 C2.34 27 1.68 27 1 27 C0.20293232 23.50007304 -0.11863027 20.2857769 -0.09765625 16.69921875 C-0.09443359 15.72275391 -0.09121094 14.74628906 -0.08789062 13.74023438 C-0.07951172 12.73283203 -0.07113281 11.72542969 -0.0625 10.6875 C-0.05798828 9.66076172 -0.05347656 8.63402344 -0.04882812 7.57617188 C-0.03708184 5.05072118 -0.02065565 2.52539095 0 0 Z " fill="#DB987C" transform="translate(44,103)"/>
<path d="M0 0 C0.33 0 0.66 0 1 0 C1.15178302 9.05638678 0.69037426 17.97582223 0 27 C-6.95171674 20.23122318 -6.95171674 20.23122318 -7.125 15.8125 C-7.08375 14.884375 -7.0425 13.95625 -7 13 C-5.68 13.33 -4.36 13.66 -3 14 C-2.95101563 13.32453125 -2.90203125 12.6490625 -2.8515625 11.953125 C-2.73941406 10.61507812 -2.73941406 10.61507812 -2.625 9.25 C-2.55539063 8.36828125 -2.48578125 7.4865625 -2.4140625 6.578125 C-2.00149945 4.00933618 -1.28839043 2.24158985 0 0 Z " fill="#E07F63" transform="translate(34,78)"/>
<path d="M0 0 C2.21484375 -0.34765625 2.21484375 -0.34765625 5 0 C7.31640625 2.37890625 7.31640625 2.37890625 9.5625 5.5625 C9.95163574 6.11099609 10.34077148 6.65949219 10.74169922 7.22460938 C11.84846317 8.80210886 12.92508039 10.40063172 14 12 C14.49628906 12.73089844 14.99257812 13.46179688 15.50390625 14.21484375 C17.10654975 16.76678828 18.06305147 18.38524821 17.75 21.4375 C17.5025 21.953125 17.255 22.46875 17 23 C14.64046906 20.64046906 14.50858587 19.22104383 14 16 C13.13375 15.938125 13.13375 15.938125 12.25 15.875 C9.4588457 14.78955111 8.72481572 13.26405251 7.21484375 10.765625 C4.93049884 7.44561246 1.91244471 4.76518627 -1 2 C-0.67 1.34 -0.34 0.68 0 0 Z " fill="#DA977F" transform="translate(121,42)"/>
<path d="M0 0 C9.9 0.33 19.8 0.66 30 1 C25.49761669 4.37678749 25.49761669 4.37678749 21.19140625 4.328125 C19.82338867 4.32039063 19.82338867 4.32039063 18.42773438 4.3125 C17.48220703 4.291875 16.53667969 4.27125 15.5625 4.25 C14.15000977 4.24226563 14.15000977 4.24226563 12.70898438 4.234375 C8.32349788 4.18485645 4.29413562 3.95499662 0 3 C0 2.01 0 1.02 0 0 Z " fill="#DC8C6F" transform="translate(66,123)"/>
<path d="M0 0 C1.3077036 2.6154072 0.76582573 3.5640522 0.00390625 6.3515625 C-0.22490234 7.20234375 -0.45371094 8.053125 -0.68945312 8.9296875 C-0.93630859 9.81914063 -1.18316406 10.70859375 -1.4375 11.625 C-1.80198242 12.97078125 -1.80198242 12.97078125 -2.17382812 14.34375 C-2.77621451 16.56431158 -3.38518001 18.78285481 -4 21 C-5.65 21.33 -7.3 21.66 -9 22 C-10 20 -10 20 -9.3203125 17.3359375 C-7.8155938 13.53407427 -5.95034767 10.13769094 -3.875 6.625 C-3.50246094 5.98433594 -3.12992188 5.34367187 -2.74609375 4.68359375 C-1.83565998 3.11951523 -0.91851809 1.55934466 0 0 Z " fill="#DA9477" transform="translate(52,73)"/>
<path d="M0 0 C0.33 0 0.66 0 1 0 C1 8.25 1 16.5 1 25 C0.67 24.01 0.34 23.02 0 22 C-0.66 22 -1.32 22 -2 22 C-3.2062252 18.38132441 -3.10816918 15.07493749 -3.0625 11.3125 C-3.05798828 10.61060547 -3.05347656 9.90871094 -3.04882812 9.18554688 C-3.03706927 7.45699462 -3.01913454 5.72848635 -3 4 C-2.34 4 -1.68 4 -1 4 C-0.67 2.68 -0.34 1.36 0 0 Z " fill="#DC937A" transform="translate(26,65)"/>
<path d="M0 0 C0.66 0.66 1.32 1.32 2 2 C2.33 1.34 2.66 0.68 3 0 C3.66 0.33 4.32 0.66 5 1 C1.85714286 9.57142857 1.85714286 9.57142857 0 13 C-0.33 11.68 -0.66 10.36 -1 9 C-2.21693876 11.43387753 -2.31959896 13.41838846 -2.5625 16.125 C-2.68818359 17.49011719 -2.68818359 17.49011719 -2.81640625 18.8828125 C-2.87699219 19.58148438 -2.93757813 20.28015625 -3 21 C-4.32 21 -5.64 21 -7 21 C-7.66 21.66 -8.32 22.32 -9 23 C-9.33 20.69 -9.66 18.38 -10 16 C-9.67 16 -9.34 16 -9 16 C-8.67 14.35 -8.34 12.7 -8 11 C-7.67 11 -7.34 11 -7 11 C-6.34 13.64 -5.68 16.28 -5 19 C-4.89042969 18.21496094 -4.78085937 17.42992188 -4.66796875 16.62109375 C-3.7619808 10.61800285 -2.71923287 5.43846574 0 0 Z " fill="#DD9C83" transform="translate(35,71)"/>
<path d="M0 0 C-3.98657712 4.74851678 -10.15639821 5.80875866 -16 7 C-21.33177441 7.43253271 -26.66287453 7.24664508 -32 7 C-32 6.67 -32 6.34 -32 6 C-31.14535156 5.86722656 -30.29070312 5.73445312 -29.41015625 5.59765625 C-28.30542969 5.42105469 -27.20070312 5.24445313 -26.0625 5.0625 C-24.96035156 4.88847656 -23.85820312 4.71445313 -22.72265625 4.53515625 C-20.09573071 4.28154864 -20.09573071 4.28154864 -19 3 C-16.77854367 2.71612221 -14.55682352 2.55234827 -12.32421875 2.37890625 C-7.71705481 1.62782238 -4.96869316 -0.22584969 0 0 Z " fill="#D88866" transform="translate(165,177)"/>
<path d="M0 0 C0.33 0 0.66 0 1 0 C1.06058594 0.63808594 1.12117187 1.27617188 1.18359375 1.93359375 C1.26738281 2.75988281 1.35117188 3.58617188 1.4375 4.4375 C1.51871094 5.26121094 1.59992188 6.08492188 1.68359375 6.93359375 C1.78930815 8.98662025 1.78930815 8.98662025 3 10 C3.27742966 13.11645988 3.23176472 16.24764923 3.25 19.375 C3.270625 20.2515625 3.29125 21.128125 3.3125 22.03125 C3.31765625 22.87429687 3.3228125 23.71734375 3.328125 24.5859375 C3.3374707 25.3598584 3.34681641 26.1337793 3.35644531 26.93115234 C3 29 3 29 0 32 C0 21.44 0 10.88 0 0 Z " fill="#DC8160" transform="translate(210,95)"/>
<path d="M0 0 C3.29412783 0.61246707 6.5847447 1.24208595 9.875 1.875 C10.81214844 2.04902344 11.74929687 2.22304688 12.71484375 2.40234375 C13.61074219 2.57636719 14.50664062 2.75039063 15.4296875 2.9296875 C16.25710449 3.08679199 17.08452148 3.24389648 17.93701172 3.40576172 C20 4 20 4 22 6 C19.03 6 16.06 6 13 6 C12.67 6.66 12.34 7.32 12 8 C6.72 7.34 1.44 6.68 -4 6 C-4 5.67 -4 5.34 -4 5 C-1.36 4.67 1.28 4.34 4 4 C2.68 3.34 1.36 2.68 0 2 C0 1.34 0 0.68 0 0 Z " fill="#D7886C" transform="translate(130,36)"/>
<path d="M0 0 C-5.07476794 1.26305335 -9.72796354 2.27036084 -15 2 C-15 1.67 -15 1.34 -15 1 C-21.93 0.67 -28.86 0.34 -36 0 C-36 -0.33 -36 -0.66 -36 -1 C-35.33468262 -1.02505615 -34.66936523 -1.0501123 -33.98388672 -1.07592773 C-30.94742513 -1.19251136 -27.91122654 -1.31495351 -24.875 -1.4375 C-23.82828125 -1.47681641 -22.7815625 -1.51613281 -21.703125 -1.55664062 C-3.46068135 -2.3071209 -3.46068135 -2.3071209 0 0 Z " fill="#DD9C83" transform="translate(129,155)"/>
<path d="M0 0 C1.30710937 0.00290039 1.30710937 0.00290039 2.640625 0.00585938 C3.99414062 0.02422852 3.99414062 0.02422852 5.375 0.04296875 C6.27734375 0.04361328 7.1796875 0.04425781 8.109375 0.04492188 C12.04709997 0.07113454 15.56877322 0.14150118 19.375 1.23046875 C19.375 1.89046875 19.375 2.55046875 19.375 3.23046875 C9.98144064 3.37303542 0.73427791 2.95539207 -8.625 2.23046875 C-5.61574188 0.49696775 -3.46106527 -0.01796766 0 0 Z " fill="#DD8061" transform="translate(100.625,32.76953125)"/>
<path d="M0 0 C2.03653993 3.05480989 2.25025666 3.6564478 2.23046875 7.08984375 C2.22853516 7.87423828 2.22660156 8.65863281 2.22460938 9.46679688 C2.21236328 10.28212891 2.20011719 11.09746094 2.1875 11.9375 C2.18685547 12.74896484 2.18621094 13.56042969 2.18554688 14.39648438 C2.15806161 18.11921141 2.01551881 21.39832704 1 25 C0.01 25 -0.98 25 -2 25 C-1.93941406 24.36835937 -1.87882813 23.73671875 -1.81640625 23.0859375 C-1.09635714 15.39802858 -0.52854446 7.70325437 0 0 Z " fill="#DE8467" transform="translate(176,86)"/>
<path d="M0 0 C2.11267159 4.08449842 3.12560693 7.27485682 3.09765625 11.88671875 C3.09282227 13.2934082 3.09282227 13.2934082 3.08789062 14.72851562 C3.07951172 15.70498047 3.07113281 16.68144531 3.0625 17.6875 C3.05798828 18.67556641 3.05347656 19.66363281 3.04882812 20.68164062 C3.03704303 23.12115474 3.02059011 25.56054689 3 28 C2.67 28 2.34 28 2 28 C1.67 22.72 1.34 17.44 1 12 C0.67 15.63 0.34 19.26 0 23 C-0.33 23 -0.66 23 -1 23 C-1.33 17.06 -1.66 11.12 -2 5 C-1.34 5 -0.68 5 0 5 C0 3.35 0 1.7 0 0 Z " fill="#DDA08A" transform="translate(176,77)"/>
<path d="M0 0 C1.85772162 0.08984301 3.71247985 0.24611861 5.5625 0.4375 C7.08037109 0.59025391 7.08037109 0.59025391 8.62890625 0.74609375 C9.80259766 0.87177734 9.80259766 0.87177734 11 1 C11 1.66 11 2.32 11 3 C11.99 3 12.98 3 14 3 C14 3.66 14 4.32 14 5 C11.03 4.505 11.03 4.505 8 4 C8 4.66 8 5.32 8 6 C4.625 5.75 4.625 5.75 1 5 C-0.4375 2.9375 -0.4375 2.9375 -1 1 C-0.67 0.67 -0.34 0.34 0 0 Z " fill="#D98465" transform="translate(143,41)"/>
<path d="M0 0 C0.33 0 0.66 0 1 0 C1.33 6.93 1.66 13.86 2 21 C2.66 20.67 3.32 20.34 4 20 C3.75 22.375 3.75 22.375 3 25 C1.125 26.125 1.125 26.125 -1 27 C-2.02420222 27.97519732 -3.02815265 28.97261851 -4 30 C-3.79141357 29.47865479 -3.58282715 28.95730957 -3.36791992 28.42016602 C-1.06835594 22.20746415 -0.47301688 16.52786433 -0.3125 9.9375 C-0.27833984 8.97650391 -0.24417969 8.01550781 -0.20898438 7.02539062 C-0.12743333 4.68371073 -0.05799034 2.34236137 0 0 Z " fill="#DEA089" transform="translate(209,104)"/>
<path d="M0 0 C2.64 0.33 5.28 0.66 8 1 C8 2.65 8 4.3 8 6 C7.39671875 5.98839844 6.7934375 5.97679687 6.171875 5.96484375 C5.37265625 5.95582031 4.5734375 5.94679688 3.75 5.9375 C2.96109375 5.92589844 2.1721875 5.91429687 1.359375 5.90234375 C-0.90691002 5.99614694 -2.8288895 6.36758937 -5 7 C-5.66 5.68 -6.32 4.36 -7 3 C-3.37 3 0.26 3 4 3 C4 2.34 4 1.68 4 1 C2.68 0.67 1.36 0.34 0 0 Z " fill="#E1A48A" transform="translate(116,33)"/>
<path d="M0 0 C0.9178125 0.00902344 1.835625 0.01804687 2.78125 0.02734375 C5.02111556 0.05067568 7.26041183 0.08340765 9.5 0.125 C9.5 0.455 9.5 0.785 9.5 1.125 C8.40300781 1.17398437 7.30601563 1.22296875 6.17578125 1.2734375 C4.72133075 1.34850591 3.26690484 1.42405197 1.8125 1.5 C0.7306543 1.54640625 0.7306543 1.54640625 -0.37304688 1.59375 C-4.48999388 1.81933614 -7.71576641 2.34418419 -11.5 4.125 C-12.82676508 4.48358516 -14.15835921 4.8268576 -15.5 5.125 C-15.5 4.465 -15.5 3.805 -15.5 3.125 C-17.48 3.455 -19.46 3.785 -21.5 4.125 C-14.87564166 -0.2912389 -7.69005117 -0.1453062 0 0 Z " fill="#E0B2A3" transform="translate(81.5,26.875)"/>
<path d="M0 0 C0.99 0 1.98 0 3 0 C3 1.32 3 2.64 3 4 C3.66 4.33 4.32 4.66 5 5 C5.625 8.0625 5.625 8.0625 6 11 C5.01 11.66 4.02 12.32 3 13 C-0.36055646 8.51925805 -0.27429625 5.39449293 0 0 Z " fill="#DC947B" transform="translate(33,106)"/>
<path d="M0 0 C4.07678614 4.07678614 4.12257278 10.09537331 4.1953125 15.59375 C4.18218686 17.56259575 4.15858509 19.53139696 4.125 21.5 C4.11597656 22.51320313 4.10695312 23.52640625 4.09765625 24.5703125 C4.07429007 27.04712801 4.04153168 29.52343379 4 32 C3.67 32 3.34 32 3 32 C2.93941406 30.71222656 2.87882813 29.42445312 2.81640625 28.09765625 C2.73201753 26.41925841 2.6473687 24.74087364 2.5625 23.0625 C2.52318359 22.21236328 2.48386719 21.36222656 2.44335938 20.48632812 C2.40146484 19.67744141 2.35957031 18.86855469 2.31640625 18.03515625 C2.27974854 17.2862915 2.24309082 16.53742676 2.20532227 15.76586914 C2.18228937 13.97538674 2.18228937 13.97538674 1 13 C0.76518307 10.81707226 0.58636677 8.62796826 0.4375 6.4375 C0.35371094 5.23996094 0.26992187 4.04242188 0.18359375 2.80859375 C0.12300781 1.88175781 0.06242188 0.95492187 0 0 Z " fill="#DDA08B" transform="translate(210,91)"/>
<path d="M0 0 C-1.98 0.66 -3.96 1.32 -6 2 C-5.01 2.66 -4.02 3.32 -3 4 C-5.64 4.66 -8.28 5.32 -11 6 C-11.33 5.34 -11.66 4.68 -12 4 C-12.99 4 -13.98 4 -15 4 C-15 4.66 -15 5.32 -15 6 C-15.99 6.33 -16.98 6.66 -18 7 C-18.66 6.34 -19.32 5.68 -20 5 C-17.42138975 3.96555751 -14.83825365 2.94727716 -12.25 1.9375 C-11.15558594 1.49567383 -11.15558594 1.49567383 -10.0390625 1.04492188 C-8.97558594 0.6340332 -8.97558594 0.6340332 -7.890625 0.21484375 C-7.24125977 -0.04176025 -6.59189453 -0.29836426 -5.92285156 -0.56274414 C-3.63367214 -1.08330284 -2.20743336 -0.72364304 0 0 Z " fill="#DEA28C" transform="translate(107,41)"/>
<path d="M0 0 C-0.99 0.495 -0.99 0.495 -2 1 C-1.67 1.66 -1.34 2.32 -1 3 C-2.61992165 3.86375896 -4.24611861 4.71575854 -5.875 5.5625 C-7.23238281 6.27599609 -7.23238281 6.27599609 -8.6171875 7.00390625 C-9.40351562 7.33261719 -10.18984375 7.66132812 -11 8 C-11.66 7.67 -12.32 7.34 -13 7 C-12.67 6.34 -12.34 5.68 -12 5 C-12.66 4.67 -13.32 4.34 -14 4 C-12.23494565 3.13395466 -10.46271926 2.28251358 -8.6875 1.4375 C-7.70136719 0.96183594 -6.71523437 0.48617187 -5.69921875 -0.00390625 C-3 -1 -3 -1 0 0 Z " fill="#DE9E8A" transform="translate(79,37)"/>
<path d="M0 0 C1.19882813 0.00483398 1.19882813 0.00483398 2.421875 0.00976562 C3.246875 0.01814453 4.071875 0.02652344 4.921875 0.03515625 C5.76234375 0.03966797 6.6028125 0.04417969 7.46875 0.04882812 C9.53648901 0.06057664 11.60419124 0.07851103 13.671875 0.09765625 C13.671875 0.42765625 13.671875 0.75765625 13.671875 1.09765625 C10.98493778 1.43616803 8.29747211 1.76859225 5.609375 2.09765625 C4.48112305 2.24074219 4.48112305 2.24074219 3.33007812 2.38671875 C-1.26233817 2.94337527 -5.7023385 3.19594653 -10.328125 3.09765625 C-7.24632667 0.01585792 -4.22346867 -0.03016763 0 0 Z " fill="#D78165" transform="translate(79.328125,27.90234375)"/>
<path d="M0 0 C7.3905476 -0.14715692 14.64424835 0.29223008 22 1 C22 1.33 22 1.66 22 2 C19.27132267 2.22262638 16.54308042 2.42852324 13.8125 2.625 C13.04357422 2.68945312 12.27464844 2.75390625 11.48242188 2.8203125 C7.11875319 3.11996357 3.98914662 3.09450183 0 1 C0 0.67 0 0.34 0 0 Z " fill="#DB8E6F" transform="translate(83,154)"/>
<path d="M0 0 C2.92238988 1.1312477 4.99408218 2.59289861 7 5 C7 5.66 7 6.32 7 7 C4.83125748 6.49396008 3.00032373 6.00016187 1 5 C1 5.66 1 6.32 1 7 C0.34 7 -0.32 7 -1 7 C-1.33 5.02 -1.66 3.04 -2 1 C-1.34 0.67 -0.68 0.34 0 0 Z " fill="#D8896C" transform="translate(49,133)"/>
<path d="M0 0 C0.33 0 0.66 0 1 0 C1.22587773 3.26987035 1.42766605 6.54079281 1.625 9.8125 C1.68945312 10.74126953 1.75390625 11.67003906 1.8203125 12.62695312 C1.871875 13.51962891 1.9234375 14.41230469 1.9765625 15.33203125 C2.02893066 16.15421143 2.08129883 16.9763916 2.13525391 17.82348633 C2 20 2 20 0 23 C-0.33 22.34 -0.66 21.68 -1 21 C-1.99 21.66 -2.98 22.32 -4 23 C-2.125 17.25 -2.125 17.25 -1 15 C-0.76827173 12.45384991 -0.58105471 9.92603775 -0.4375 7.375 C-0.39431641 6.66859375 -0.35113281 5.9621875 -0.30664062 5.234375 C-0.20055249 3.48981463 -0.09977111 1.74493303 0 0 Z " fill="#D99075" transform="translate(137,72)"/>
<path d="M0 0 C-0.33 0.99 -0.66 1.98 -1 3 C-5.7300622 4.8621508 -10.96242242 5.25833731 -16 5 C-11.45755844 0.83609524 -5.97762888 0 0 0 Z " fill="#DB8B6D" transform="translate(91,34)"/>
<path d="M0 0 C1.04607422 0.23493164 1.04607422 0.23493164 2.11328125 0.47460938 C3.82931635 0.86248032 5.54024522 1.27282067 7.25 1.6875 C7.25 2.0175 7.25 2.3475 7.25 2.6875 C0.43491136 3.51560601 -5.26870203 4.19163785 -11.75 1.6875 C-8.03568804 -2.18955243 -4.76719179 -1.17602746 0 0 Z " fill="#DF9C87" transform="translate(85.75,151.3125)"/>
<path d="M0 0 C-2.48434437 2.34290892 -3.77731593 2.97982934 -7.234375 3.29296875 C-8.39453125 3.25816406 -9.5546875 3.22335938 -10.75 3.1875 C-11.92046875 3.16042969 -13.0909375 3.13335937 -14.296875 3.10546875 C-15.18890625 3.07066406 -16.0809375 3.03585938 -17 3 C-17 2.34 -17 1.68 -17 1 C-11.29309366 0.00749455 -5.78591511 -0.10477512 0 0 Z " fill="#DC8561" transform="translate(96,124)"/>
<path d="M0 0 C0.33 0 0.66 0 1 0 C0.67 5.94 0.34 11.88 0 18 C-0.66 17.67 -1.32 17.34 -2 17 C-2.05418326 14.91695462 -2.09287551 12.83350232 -2.125 10.75 C-2.14820312 9.58984375 -2.17140625 8.4296875 -2.1953125 7.234375 C-2.0103949 4.17213954 -1.60823023 2.55797249 0 0 Z " fill="#DB8360" transform="translate(26,65)"/>
<path d="M0 0 C2.375 0.625 2.375 0.625 5 2 C6.3125 5.125 6.3125 5.125 7 8 C3.2089881 6.55049545 -0.3874638 4.84827434 -4 3 C-2.68 2.67 -1.36 2.34 0 2 C0 1.34 0 0.68 0 0 Z " fill="#DB9B7D" transform="translate(171,49)"/>
<path d="M0 0 C5.13503344 0.64187918 9.9943454 1.68272247 15 3 C15 3.33 15 3.66 15 4 C12.03 4 9.06 4 6 4 C5.67 4.66 5.34 5.32 5 6 C2.03 5.505 2.03 5.505 -1 5 C0.32 4.01 1.64 3.02 3 2 C2.01 1.34 1.02 0.68 0 0 Z " fill="#DDA491" transform="translate(137,38)"/>
<path d="M0 0 C2.475 0.495 2.475 0.495 5 1 C4.67 4.3 4.34 7.6 4 11 C1.29727467 8.12835434 0.05208163 6.69008159 -0.25 2.6875 C-0.1675 1.800625 -0.085 0.91375 0 0 Z " fill="#DA8C6C" transform="translate(27,91)"/>
<path d="M0 0 C0.99 0.495 0.99 0.495 2 1 C2 1.99 2 2.98 2 4 C2.66 4 3.32 4 4 4 C5.35439668 6.70879335 5.06501451 9.00933268 5 12 C4.34 12 3.68 12 3 12 C-0.42857143 4.71428571 -0.42857143 4.71428571 0 0 Z " fill="#DB8763" transform="translate(171,70)"/>
<path d="M0 0 C3.68266103 0.59950296 7.34543185 1.24758891 11 2 C11 2.33 11 2.66 11 3 C9.35 3 7.7 3 6 3 C6 3.66 6 4.32 6 5 C3.69 4.67 1.38 4.34 -1 4 C-0.34 3.67 0.32 3.34 1 3 C0.67 2.01 0.34 1.02 0 0 Z " fill="#E1A18D" transform="translate(60,120)"/>
<path d="M0 0 C0.33 0 0.66 0 1 0 C1 3.96 1 7.92 1 12 C0.01 12 -0.98 12 -2 12 C-2.28571429 3.42857143 -2.28571429 3.42857143 0 0 Z " fill="#DA8866" transform="translate(34,78)"/>
<path d="M0 0 C4.42857143 5.14285714 4.42857143 5.14285714 5 9 C4.34 9 3.68 9 3 9 C2.67 8.01 2.34 7.02 2 6 C1.01 7.485 1.01 7.485 0 9 C-0.66 6.69 -1.32 4.38 -2 2 C-1.34 1.34 -0.68 0.68 0 0 Z " fill="#DBA086" transform="translate(170,65)"/>
<path d="M0 0 C3 1 3 1 4.1796875 2.734375 C5.13874367 5.38319681 5.19893014 7.44065467 5.125 10.25 C5.10695312 11.14203125 5.08890625 12.0340625 5.0703125 12.953125 C5.03550781 13.96632813 5.03550781 13.96632813 5 15 C3.6401621 12.3571846 2.43439903 9.71440958 1.375 6.9375 C1.11460937 6.26589844 0.85421875 5.59429687 0.5859375 4.90234375 C0 3 0 3 0 0 Z " fill="#D88664" transform="translate(133,57)"/>
<path d="M0 0 C-0.66 0 -1.32 0 -2 0 C-2 0.99 -2 1.98 -2 3 C-8.28571429 5.42857143 -8.28571429 5.42857143 -12 4 C-11.67 3.34 -11.34 2.68 -11 2 C-9.35 2 -7.7 2 -6 2 C-6 1.34 -6 0.68 -6 0 C-3 -1 -3 -1 0 0 Z " fill="#DD876C" transform="translate(98,45)"/>
<path d="M0 0 C0.33 0 0.66 0 1 0 C0.67 2.97 0.34 5.94 0 9 C-0.66 9 -1.32 9 -2 9 C-2.33 9.99 -2.66 10.98 -3 12 C-3.66 11.67 -4.32 11.34 -5 11 C-3.77782954 6.95743617 -2.37245704 3.50711041 0 0 Z " fill="#DE8666" transform="translate(208,129)"/>
<path d="M0 0 C0.75 1.625 0.75 1.625 1 4 C-0.9375 7.25 -0.9375 7.25 -3 10 C-3.66 9.67 -4.32 9.34 -5 9 C-4.67 7.02 -4.34 5.04 -4 3 C-2.68 2.67 -1.36 2.34 0 2 C0 1.34 0 0.68 0 0 Z " fill="#DB8A6F" transform="translate(36,47)"/>
<path d="M0 0 C1.32 0 2.64 0 4 0 C4 0.66 4 1.32 4 2 C5.65 2.33 7.3 2.66 9 3 C8.67 3.66 8.34 4.32 8 5 C6.02 5 4.04 5 2 5 C2 4.34 2 3.68 2 3 C1.34 3 0.68 3 0 3 C0 2.01 0 1.02 0 0 Z " fill="#E17E61" transform="translate(126,36)"/>
<path d="M0 0 C0.66 0 1.32 0 2 0 C1.58525633 5.28798182 0.64775386 8.11690718 -3 12 C-2.49202991 7.6822542 -1.80317221 3.96697886 0 0 Z " fill="#DB876C" transform="translate(53,73)"/>
<path d="M0 0 C1.07349791 4.29399165 0.79682816 5.19495213 -1 9 C-4 9 -4 9 -6 8 C-4.02 5.36 -2.04 2.72 0 0 Z " fill="#DD977D" transform="translate(44,58)"/>
<path d="M0 0 C0.25 2.3125 0.25 2.3125 0 5 C-2 6.8125 -2 6.8125 -4 8 C-4 7.34 -4 6.68 -4 6 C-4.99 5.67 -5.98 5.34 -7 5 C-1.125 0 -1.125 0 0 0 Z " fill="#DE9883" transform="translate(157,135)"/>
<path d="M0 0 C3.2910841 3.60957611 4.54663921 6.12637153 5 11 C2 9 2 9 1.3125 6.375 C1.209375 5.59125 1.10625 4.8075 1 4 C-0.32 3.67 -1.64 3.34 -3 3 C-3 2.34 -3 1.68 -3 1 C-2.01 0.67 -1.02 0.34 0 0 Z " fill="#DE9A87" transform="translate(134,54)"/>
<path d="M0 0 C-0.625 1.9375 -0.625 1.9375 -2 4 C-7.18918919 5.40540541 -7.18918919 5.40540541 -10 4 C-4.5 0 -4.5 0 0 0 Z " fill="#DE977D" transform="translate(67,42)"/>
<path d="M0 0 C-1.28299758 2.86207152 -2.530636 5.0245088 -5 7 C-5.99 7 -6.98 7 -8 7 C-6.47663111 3.31852519 -4.31953005 0 0 0 Z " fill="#D88362" transform="translate(194,157)"/>
<path d="M0 0 C2.64 0 5.28 0 8 0 C8 0.66 8 1.32 8 2 C4.78548731 3.60725635 1.56387464 3.05748185 -2 3 C-1.34 2.67 -0.68 2.34 0 2 C0 1.34 0 0.68 0 0 Z " fill="#DD8F72" transform="translate(126,151)"/>
<path d="M0 0 C5.66153846 1.47692308 5.66153846 1.47692308 7.375 4.125 C7.684375 5.053125 7.684375 5.053125 8 6 C5.6875 5.8125 5.6875 5.8125 3 5 C1.1875 2.4375 1.1875 2.4375 0 0 Z " fill="#DB8465" transform="translate(187,62)"/>
<path d="M0 0 C0.99 0 1.98 0 3 0 C2.4409112 3.24271506 1.5867822 4.93057424 -1 7 C-1.66 7 -2.32 7 -3 7 C-1.125 1.125 -1.125 1.125 0 0 Z " fill="#DD876D" transform="translate(47,55)"/>
<path d="M0 0 C2.475 0.99 2.475 0.99 5 2 C5 2.99 5 3.98 5 5 C5.66 5 6.32 5 7 5 C7 5.66 7 6.32 7 7 C5.35 6.67 3.7 6.34 2 6 C1.34 4.02 0.68 2.04 0 0 Z " fill="#D9896C" transform="translate(176,52)"/>
<path d="M0 0 C0.66 0.33 1.32 0.66 2 1 C1.01 2.32 0.02 3.64 -1 5 C-0.34 5.33 0.32 5.66 1 6 C0.01 6.66 -0.98 7.32 -2 8 C-2 7.34 -2 6.68 -2 6 C-3.65 6.33 -5.3 6.66 -7 7 C-4.66666667 4.66666667 -2.33333333 2.33333333 0 0 Z " fill="#DD9C83" transform="translate(187,159)"/>
<path d="M0 0 C0.99 0.33 1.98 0.66 3 1 C3.08912219 4.83225427 2.87867729 8.26562152 2 12 C1.01 11.34 0.02 10.68 -1 10 C-0.649375 9.278125 -0.29875 8.55625 0.0625 7.8125 C1.10409017 4.6877295 0.89096572 3.11838004 0 0 Z " fill="#E6AE93" transform="translate(37,111)"/>
<path d="M0 0 C1.69141656 0.08963062 3.37959602 0.24577676 5.0625 0.4375 C6.44115234 0.59025391 6.44115234 0.59025391 7.84765625 0.74609375 C8.55792969 0.82988281 9.26820312 0.91367187 10 1 C10 1.33 10 1.66 10 2 C5.05 2.33 0.1 2.66 -5 3 C-3.68 2.34 -2.36 1.68 -1 1 C-0.67 0.67 -0.34 0.34 0 0 Z " fill="#D68E6F" transform="translate(109,41)"/>
<path d="M0 0 C0.33 0 0.66 0 1 0 C1 2.64 1 5.28 1 8 C-0.32 8.33 -1.64 8.66 -3 9 C-2.44271087 5.65626525 -1.64826111 2.96687001 0 0 Z " fill="#DD805D" transform="translate(42,102)"/>
<path d="M0 0 C1.32 1.32 2.64 2.64 4 4 C3.67 4.66 3.34 5.32 3 6 C2.34 5.67 1.68 5.34 1 5 C0.67 5.99 0.34 6.98 0 8 C-1.125 5.6875 -1.125 5.6875 -2 3 C-1.34 2.01 -0.68 1.02 0 0 Z " fill="#DC997C" transform="translate(199,71)"/>
<path d="M0 0 C0.33 1.32 0.66 2.64 1 4 C-0.32 4.33 -1.64 4.66 -3 5 C-3 4.34 -3 3.68 -3 3 C-4.65 3.33 -6.3 3.66 -8 4 C-5.29881977 1.17603885 -4.05589853 0 0 0 Z " fill="#E29C85" transform="translate(87,47)"/>
<path d="M0 0 C0 0.66 0 1.32 0 2 C0.66 2.33 1.32 2.66 2 3 C-1.50776784 4.60355101 -4.14354879 5.22036864 -8 5 C-3.22727273 0 -3.22727273 0 0 0 Z " fill="#DD9981" transform="translate(53,34)"/>
<path d="M0 0 C-2.35953094 2.35953094 -3.77895617 2.49141413 -7 3 C-7 2.34 -7 1.68 -7 1 C-7.99 0.67 -8.98 0.34 -10 0 C-6.22996568 -2.61002376 -4.07631429 -1.66758312 0 0 Z " fill="#DCA38C" transform="translate(113,120)"/>
<path d="M0 0 C0.185625 0.9590625 0.185625 0.9590625 0.375 1.9375 C0.684375 2.9584375 0.684375 2.9584375 1 4 C1.66 4.33 2.32 4.66 3 5 C1.68 6.32 0.36 7.64 -1 9 C-1 7.68 -1 6.36 -1 5 C-1.66 4.67 -2.32 4.34 -3 4 C-2.01 2.68 -1.02 1.36 0 0 Z " fill="#D9987E" transform="translate(56,68)"/>
<path d="M0 0 C4.48525648 0.656379 8.66914029 1.70074209 13 3 C13 3.33 13 3.66 13 4 C8.17639811 4.19294408 4.50353262 3.75747614 0 2 C0 1.34 0 0.68 0 0 Z " fill="#D79F88" transform="translate(98,29)"/>
<path d="M0 0 C0.33 0.66 0.66 1.32 1 2 C1.66 2.33 2.32 2.66 3 3 C2.01 3.99 1.02 4.98 0 6 C0 5.34 0 4.68 0 4 C-0.66 4 -1.32 4 -2 4 C-2.33 4.99 -2.66 5.98 -3 7 C-3.66 6.67 -4.32 6.34 -5 6 C-3.35 4.02 -1.7 2.04 0 0 Z " fill="#D99883" transform="translate(129,101)"/>
<path d="M0 0 C0.33 0 0.66 0 1 0 C1.66 2.64 2.32 5.28 3 8 C1.35 8 -0.3 8 -2 8 C-1.125 1.125 -1.125 1.125 0 0 Z " fill="#E69A82" transform="translate(44,87)"/>
<path d="M0 0 C2.64 0 5.28 0 8 0 C8 0.66 8 1.32 8 2 C6.02 2.66 4.04 3.32 2 4 C1.34 2.68 0.68 1.36 0 0 Z " fill="#D99477" transform="translate(109,36)"/>
<path d="M0 0 C0.99 0 1.98 0 3 0 C3 1.98 3 3.96 3 6 C2.01 6 1.02 6 0 6 C0 4.02 0 2.04 0 0 Z " fill="#DA845E" transform="translate(33,106)"/>
<path d="M0 0 C2.9375 0.75 2.9375 0.75 6 2 C6.875 4.125 6.875 4.125 7 6 C2.32307692 4.52307692 2.32307692 4.52307692 0.6875 1.875 C0.460625 1.25625 0.23375 0.6375 0 0 Z " fill="#DD8969" transform="translate(155,51)"/>
<path d="M0 0 C2 1 4 2 6 3 C6 3.99 6 4.98 6 6 C4.68 6 3.36 6 2 6 C0 3 0 3 0 0 Z " fill="#D88C72" transform="translate(128,49)"/>
<path d="M0 0 C1.32 0.33 2.64 0.66 4 1 C3.67 2.65 3.34 4.3 3 6 C2.34 5.34 1.68 4.68 1 4 C0.01 4.66 -0.98 5.32 -2 6 C-1.34 4.02 -0.68 2.04 0 0 Z " fill="#DF9A83" transform="translate(135,89)"/>
<path d="M0 0 C2.475 0.99 2.475 0.99 5 2 C4.67 2.66 4.34 3.32 4 4 C1.69 3.67 -0.62 3.34 -3 3 C-2.01 2.01 -1.02 1.02 0 0 Z " fill="#D8A088" transform="translate(65,144)"/>
<path d="M0 0 C0 2.31 0 4.62 0 7 C-0.66 7 -1.32 7 -2 7 C-2.33 5.02 -2.66 3.04 -3 1 C-1 0 -1 0 0 0 Z " fill="#DD815A" transform="translate(50,133)"/>
<path d="M0 0 C0.66 0 1.32 0 2 0 C1.25 4.75 1.25 4.75 -1 7 C-1.66 6.34 -2.32 5.68 -3 5 C-1.625 2.5 -1.625 2.5 0 0 Z " fill="#D7836A" transform="translate(29,57)"/>
<path d="M0 0 C1.32 0 2.64 0 4 0 C3.67 1.65 3.34 3.3 3 5 C1.68 3.68 0.36 2.36 -1 1 C-0.67 0.67 -0.34 0.34 0 0 Z " fill="#DF8D78" transform="translate(121,42)"/>
<path d="M0 0 C-1.125 1.5 -1.125 1.5 -3 3 C-6.1875 3.1875 -6.1875 3.1875 -9 3 C-5.92807025 0.26939578 -4.09590633 -0.34132553 0 0 Z " fill="#DA8464" transform="translate(84,36)"/>
</svg>
